<mxfile host="app.diagrams.net" modified="2024-07-24T11:12:04.769Z" agent="Mozilla/5.0 (Macintosh; Intel Mac OS X 10_15_7) AppleWebKit/537.36 (KHTML, like Gecko) Chrome/125.0.0.0 Safari/537.36" etag="_yhgnaZAmIir8j797Hqh" version="24.4.6" type="device">
  <diagram name="Страница — 1" id="LEemFH7uIflUAYOJYo_6">
    <mxGraphModel dx="2593" dy="2120" grid="1" gridSize="10" guides="1" tooltips="1" connect="1" arrows="1" fold="1" page="1" pageScale="1" pageWidth="827" pageHeight="1169" math="0" shadow="0">
      <root>
        <mxCell id="0" />
        <mxCell id="1" parent="0" />
        <mxCell id="uJEWco5rzJKo2e32KWKp-2" value="" style="rounded=1;whiteSpace=wrap;html=1;direction=south;arcSize=9;" vertex="1" parent="1">
          <mxGeometry x="40" y="40" width="240" height="480" as="geometry" />
        </mxCell>
        <mxCell id="uJEWco5rzJKo2e32KWKp-3" value="" style="rounded=1;whiteSpace=wrap;html=1;direction=south;arcSize=9;" vertex="1" parent="1">
          <mxGeometry x="320" y="40" width="240" height="480" as="geometry" />
        </mxCell>
        <mxCell id="uJEWco5rzJKo2e32KWKp-5" value="Logo" style="rounded=1;whiteSpace=wrap;html=1;" vertex="1" parent="1">
          <mxGeometry x="70" y="70" width="180" height="180" as="geometry" />
        </mxCell>
        <mxCell id="uJEWco5rzJKo2e32KWKp-6" value="login" style="rounded=1;whiteSpace=wrap;html=1;arcSize=50;" vertex="1" parent="1">
          <mxGeometry x="50" y="280" width="220" height="30" as="geometry" />
        </mxCell>
        <mxCell id="uJEWco5rzJKo2e32KWKp-7" value="pass" style="rounded=1;whiteSpace=wrap;html=1;arcSize=50;" vertex="1" parent="1">
          <mxGeometry x="50" y="320" width="220" height="30" as="geometry" />
        </mxCell>
        <mxCell id="uJEWco5rzJKo2e32KWKp-11" style="edgeStyle=orthogonalEdgeStyle;rounded=0;orthogonalLoop=1;jettySize=auto;html=1;entryX=0.5;entryY=1;entryDx=0;entryDy=0;" edge="1" parent="1" source="uJEWco5rzJKo2e32KWKp-8" target="uJEWco5rzJKo2e32KWKp-3">
          <mxGeometry relative="1" as="geometry" />
        </mxCell>
        <mxCell id="uJEWco5rzJKo2e32KWKp-8" value="accept button" style="rounded=1;whiteSpace=wrap;html=1;arcSize=50;" vertex="1" parent="1">
          <mxGeometry x="50" y="470" width="220" height="40" as="geometry" />
        </mxCell>
        <mxCell id="uJEWco5rzJKo2e32KWKp-10" style="edgeStyle=orthogonalEdgeStyle;rounded=0;orthogonalLoop=1;jettySize=auto;html=1;entryX=0.5;entryY=1;entryDx=0;entryDy=0;" edge="1" parent="1" source="uJEWco5rzJKo2e32KWKp-9" target="uJEWco5rzJKo2e32KWKp-12">
          <mxGeometry relative="1" as="geometry">
            <mxPoint x="20" y="560" as="targetPoint" />
            <Array as="points">
              <mxPoint x="20" y="455" />
              <mxPoint x="20" y="800" />
            </Array>
          </mxGeometry>
        </mxCell>
        <mxCell id="uJEWco5rzJKo2e32KWKp-9" value="rules and politics" style="text;html=1;align=center;verticalAlign=middle;whiteSpace=wrap;rounded=0;" vertex="1" parent="1">
          <mxGeometry x="70" y="440" width="180" height="30" as="geometry" />
        </mxCell>
        <mxCell id="uJEWco5rzJKo2e32KWKp-12" value="" style="rounded=1;whiteSpace=wrap;html=1;direction=south;arcSize=9;" vertex="1" parent="1">
          <mxGeometry x="40" y="560" width="240" height="480" as="geometry" />
        </mxCell>
        <mxCell id="uJEWco5rzJKo2e32KWKp-13" value="&lt;h1 style=&quot;margin-top: 0px;&quot;&gt;Rules&lt;/h1&gt;&lt;p&gt;Lorem ipsum dolor sit amet, consectetur adipisicing elit, sed do eiusmod tempor incididunt ut labore et dolore magna aliqua.&lt;/p&gt;" style="text;html=1;whiteSpace=wrap;overflow=hidden;rounded=0;" vertex="1" parent="1">
          <mxGeometry x="70" y="620" width="180" height="120" as="geometry" />
        </mxCell>
        <mxCell id="uJEWco5rzJKo2e32KWKp-14" value="&lt;h1 style=&quot;margin-top: 0px;&quot;&gt;Rules&lt;/h1&gt;&lt;p&gt;Lorem ipsum dolor sit amet, consectetur adipisicing elit, sed do eiusmod tempor incididunt ut labore et dolore magna aliqua.&lt;/p&gt;" style="text;html=1;whiteSpace=wrap;overflow=hidden;rounded=0;" vertex="1" parent="1">
          <mxGeometry x="70" y="750" width="180" height="120" as="geometry" />
        </mxCell>
        <mxCell id="uJEWco5rzJKo2e32KWKp-15" value="&lt;h1 style=&quot;margin-top: 0px;&quot;&gt;Rules&lt;/h1&gt;&lt;p&gt;Lorem ipsum dolor sit amet, consectetur adipisicing elit, sed do eiusmod tempor incididunt ut labore et dolore magna aliqua.&lt;/p&gt;" style="text;html=1;whiteSpace=wrap;overflow=hidden;rounded=0;" vertex="1" parent="1">
          <mxGeometry x="70" y="870" width="180" height="120" as="geometry" />
        </mxCell>
        <mxCell id="uJEWco5rzJKo2e32KWKp-17" value="" style="line;strokeWidth=2;html=1;" vertex="1" parent="1">
          <mxGeometry x="40" y="600" width="240" height="10" as="geometry" />
        </mxCell>
        <mxCell id="uJEWco5rzJKo2e32KWKp-18" value="logo" style="ellipse;whiteSpace=wrap;html=1;" vertex="1" parent="1">
          <mxGeometry x="115" y="570" width="90" height="30" as="geometry" />
        </mxCell>
        <mxCell id="uJEWco5rzJKo2e32KWKp-19" value="" style="endArrow=classic;html=1;rounded=0;" edge="1" parent="1">
          <mxGeometry width="50" height="50" relative="1" as="geometry">
            <mxPoint x="70" y="585" as="sourcePoint" />
            <mxPoint x="50" y="585" as="targetPoint" />
          </mxGeometry>
        </mxCell>
        <mxCell id="uJEWco5rzJKo2e32KWKp-23" style="edgeStyle=orthogonalEdgeStyle;rounded=0;orthogonalLoop=1;jettySize=auto;html=1;" edge="1" parent="1" source="uJEWco5rzJKo2e32KWKp-22">
          <mxGeometry relative="1" as="geometry">
            <mxPoint x="440" y="-10" as="targetPoint" />
          </mxGeometry>
        </mxCell>
        <mxCell id="uJEWco5rzJKo2e32KWKp-80" style="edgeStyle=orthogonalEdgeStyle;rounded=0;orthogonalLoop=1;jettySize=auto;html=1;entryX=0.5;entryY=1;entryDx=0;entryDy=0;" edge="1" parent="1" source="uJEWco5rzJKo2e32KWKp-22" target="uJEWco5rzJKo2e32KWKp-81">
          <mxGeometry relative="1" as="geometry">
            <mxPoint x="600" y="290" as="targetPoint" />
          </mxGeometry>
        </mxCell>
        <mxCell id="uJEWco5rzJKo2e32KWKp-22" value="appbar" style="rounded=1;whiteSpace=wrap;html=1;arcSize=50;" vertex="1" parent="1">
          <mxGeometry x="330" y="50" width="220" height="40" as="geometry" />
        </mxCell>
        <mxCell id="uJEWco5rzJKo2e32KWKp-24" value="" style="rounded=1;whiteSpace=wrap;html=1;arcSize=50;fillColor=#FF9933;strokeColor=#d79b00;" vertex="1" parent="1">
          <mxGeometry x="240" y="-70" width="390" height="60" as="geometry" />
        </mxCell>
        <mxCell id="uJEWco5rzJKo2e32KWKp-28" value="doc" style="rounded=1;whiteSpace=wrap;html=1;arcSize=50;fillColor=#FF9933;strokeColor=none;" vertex="1" parent="1">
          <mxGeometry x="510" y="-70" width="120" height="60" as="geometry" />
        </mxCell>
        <mxCell id="uJEWco5rzJKo2e32KWKp-27" value="doc" style="rounded=1;whiteSpace=wrap;html=1;arcSize=50;fillColor=#FF9933;strokeColor=none;" vertex="1" parent="1">
          <mxGeometry x="420" y="-70" width="120" height="60" as="geometry" />
        </mxCell>
        <mxCell id="uJEWco5rzJKo2e32KWKp-26" value="table" style="rounded=1;whiteSpace=wrap;html=1;arcSize=50;fillColor=#FC9732;strokeColor=none;" vertex="1" parent="1">
          <mxGeometry x="340" y="-70" width="120" height="60" as="geometry" />
        </mxCell>
        <mxCell id="uJEWco5rzJKo2e32KWKp-25" value="main" style="rounded=1;whiteSpace=wrap;html=1;arcSize=50;" vertex="1" parent="1">
          <mxGeometry x="240" y="-70" width="120" height="60" as="geometry" />
        </mxCell>
        <mxCell id="uJEWco5rzJKo2e32KWKp-51" value="" style="group" vertex="1" connectable="0" parent="1">
          <mxGeometry x="340" y="100" width="200" height="40" as="geometry" />
        </mxCell>
        <mxCell id="uJEWco5rzJKo2e32KWKp-29" value="text" style="rounded=1;whiteSpace=wrap;html=1;" vertex="1" parent="uJEWco5rzJKo2e32KWKp-51">
          <mxGeometry width="200" height="40" as="geometry" />
        </mxCell>
        <mxCell id="uJEWco5rzJKo2e32KWKp-37" value="" style="group" vertex="1" connectable="0" parent="uJEWco5rzJKo2e32KWKp-51">
          <mxGeometry x="170" y="15" width="20" height="10" as="geometry" />
        </mxCell>
        <mxCell id="uJEWco5rzJKo2e32KWKp-35" value="" style="endArrow=none;html=1;rounded=0;" edge="1" parent="uJEWco5rzJKo2e32KWKp-37">
          <mxGeometry width="50" height="50" relative="1" as="geometry">
            <mxPoint x="10" y="10" as="sourcePoint" />
            <mxPoint x="20" as="targetPoint" />
          </mxGeometry>
        </mxCell>
        <mxCell id="uJEWco5rzJKo2e32KWKp-36" value="" style="endArrow=none;html=1;rounded=0;" edge="1" parent="uJEWco5rzJKo2e32KWKp-37">
          <mxGeometry width="50" height="50" relative="1" as="geometry">
            <mxPoint as="sourcePoint" />
            <mxPoint x="10" y="10" as="targetPoint" />
          </mxGeometry>
        </mxCell>
        <mxCell id="uJEWco5rzJKo2e32KWKp-52" value="" style="group" vertex="1" connectable="0" parent="1">
          <mxGeometry x="340" y="150" width="200" height="40" as="geometry" />
        </mxCell>
        <mxCell id="uJEWco5rzJKo2e32KWKp-53" value="text" style="rounded=1;whiteSpace=wrap;html=1;" vertex="1" parent="uJEWco5rzJKo2e32KWKp-52">
          <mxGeometry width="200" height="40" as="geometry" />
        </mxCell>
        <mxCell id="uJEWco5rzJKo2e32KWKp-54" value="" style="group" vertex="1" connectable="0" parent="uJEWco5rzJKo2e32KWKp-52">
          <mxGeometry x="170" y="15" width="20" height="10" as="geometry" />
        </mxCell>
        <mxCell id="uJEWco5rzJKo2e32KWKp-55" value="" style="endArrow=none;html=1;rounded=0;" edge="1" parent="uJEWco5rzJKo2e32KWKp-54">
          <mxGeometry width="50" height="50" relative="1" as="geometry">
            <mxPoint x="10" y="10" as="sourcePoint" />
            <mxPoint x="20" as="targetPoint" />
          </mxGeometry>
        </mxCell>
        <mxCell id="uJEWco5rzJKo2e32KWKp-56" value="" style="endArrow=none;html=1;rounded=0;" edge="1" parent="uJEWco5rzJKo2e32KWKp-54">
          <mxGeometry width="50" height="50" relative="1" as="geometry">
            <mxPoint as="sourcePoint" />
            <mxPoint x="10" y="10" as="targetPoint" />
          </mxGeometry>
        </mxCell>
        <mxCell id="uJEWco5rzJKo2e32KWKp-57" value="" style="group" vertex="1" connectable="0" parent="1">
          <mxGeometry x="340" y="200" width="200" height="40" as="geometry" />
        </mxCell>
        <mxCell id="uJEWco5rzJKo2e32KWKp-58" value="input date&amp;nbsp; &amp;nbsp; &amp;nbsp; &amp;nbsp; &amp;nbsp; &amp;nbsp; &amp;nbsp;&amp;nbsp;" style="rounded=1;whiteSpace=wrap;html=1;" vertex="1" parent="uJEWco5rzJKo2e32KWKp-57">
          <mxGeometry width="200" height="40" as="geometry" />
        </mxCell>
        <mxCell id="uJEWco5rzJKo2e32KWKp-62" value="date" style="rounded=1;whiteSpace=wrap;html=1;fillColor=#FF9933;arcSize=18;" vertex="1" parent="uJEWco5rzJKo2e32KWKp-57">
          <mxGeometry x="120" width="80" height="40" as="geometry" />
        </mxCell>
        <mxCell id="uJEWco5rzJKo2e32KWKp-63" value="" style="group" vertex="1" connectable="0" parent="1">
          <mxGeometry x="340" y="250" width="200" height="40" as="geometry" />
        </mxCell>
        <mxCell id="uJEWco5rzJKo2e32KWKp-64" value="text" style="rounded=1;whiteSpace=wrap;html=1;" vertex="1" parent="uJEWco5rzJKo2e32KWKp-63">
          <mxGeometry width="200" height="40" as="geometry" />
        </mxCell>
        <mxCell id="uJEWco5rzJKo2e32KWKp-65" value="" style="group" vertex="1" connectable="0" parent="uJEWco5rzJKo2e32KWKp-63">
          <mxGeometry x="170" y="15" width="20" height="10" as="geometry" />
        </mxCell>
        <mxCell id="uJEWco5rzJKo2e32KWKp-66" value="" style="endArrow=none;html=1;rounded=0;" edge="1" parent="uJEWco5rzJKo2e32KWKp-65">
          <mxGeometry width="50" height="50" relative="1" as="geometry">
            <mxPoint x="10" y="10" as="sourcePoint" />
            <mxPoint x="20" as="targetPoint" />
          </mxGeometry>
        </mxCell>
        <mxCell id="uJEWco5rzJKo2e32KWKp-67" value="" style="endArrow=none;html=1;rounded=0;" edge="1" parent="uJEWco5rzJKo2e32KWKp-65">
          <mxGeometry width="50" height="50" relative="1" as="geometry">
            <mxPoint as="sourcePoint" />
            <mxPoint x="10" y="10" as="targetPoint" />
          </mxGeometry>
        </mxCell>
        <mxCell id="uJEWco5rzJKo2e32KWKp-68" value="" style="group" vertex="1" connectable="0" parent="1">
          <mxGeometry x="340" y="350" width="200" height="40" as="geometry" />
        </mxCell>
        <mxCell id="uJEWco5rzJKo2e32KWKp-69" value="text" style="rounded=1;whiteSpace=wrap;html=1;" vertex="1" parent="uJEWco5rzJKo2e32KWKp-68">
          <mxGeometry width="200" height="40" as="geometry" />
        </mxCell>
        <mxCell id="uJEWco5rzJKo2e32KWKp-70" value="" style="group" vertex="1" connectable="0" parent="uJEWco5rzJKo2e32KWKp-68">
          <mxGeometry x="170" y="15" width="20" height="10" as="geometry" />
        </mxCell>
        <mxCell id="uJEWco5rzJKo2e32KWKp-71" value="" style="endArrow=none;html=1;rounded=0;" edge="1" parent="uJEWco5rzJKo2e32KWKp-70">
          <mxGeometry width="50" height="50" relative="1" as="geometry">
            <mxPoint x="10" y="10" as="sourcePoint" />
            <mxPoint x="20" as="targetPoint" />
          </mxGeometry>
        </mxCell>
        <mxCell id="uJEWco5rzJKo2e32KWKp-72" value="" style="endArrow=none;html=1;rounded=0;" edge="1" parent="uJEWco5rzJKo2e32KWKp-70">
          <mxGeometry width="50" height="50" relative="1" as="geometry">
            <mxPoint as="sourcePoint" />
            <mxPoint x="10" y="10" as="targetPoint" />
          </mxGeometry>
        </mxCell>
        <mxCell id="uJEWco5rzJKo2e32KWKp-73" value="accept button" style="rounded=1;whiteSpace=wrap;html=1;arcSize=50;" vertex="1" parent="1">
          <mxGeometry x="330" y="470" width="220" height="40" as="geometry" />
        </mxCell>
        <mxCell id="uJEWco5rzJKo2e32KWKp-75" value="" style="ellipse;whiteSpace=wrap;html=1;aspect=fixed;" vertex="1" parent="1">
          <mxGeometry x="475" y="300" width="10" height="10" as="geometry" />
        </mxCell>
        <mxCell id="uJEWco5rzJKo2e32KWKp-76" value="" style="ellipse;whiteSpace=wrap;html=1;aspect=fixed;" vertex="1" parent="1">
          <mxGeometry x="475" y="320" width="10" height="10" as="geometry" />
        </mxCell>
        <mxCell id="uJEWco5rzJKo2e32KWKp-78" value="Text" style="text;html=1;align=center;verticalAlign=middle;whiteSpace=wrap;rounded=0;" vertex="1" parent="1">
          <mxGeometry x="360" y="295" width="60" height="20" as="geometry" />
        </mxCell>
        <mxCell id="uJEWco5rzJKo2e32KWKp-79" value="Text" style="text;html=1;align=center;verticalAlign=middle;whiteSpace=wrap;rounded=0;" vertex="1" parent="1">
          <mxGeometry x="360" y="315" width="60" height="20" as="geometry" />
        </mxCell>
        <mxCell id="uJEWco5rzJKo2e32KWKp-81" value="" style="rounded=1;whiteSpace=wrap;html=1;direction=south;arcSize=9;" vertex="1" parent="1">
          <mxGeometry x="600" y="40" width="240" height="480" as="geometry" />
        </mxCell>
        <mxCell id="uJEWco5rzJKo2e32KWKp-124" style="edgeStyle=orthogonalEdgeStyle;rounded=0;orthogonalLoop=1;jettySize=auto;html=1;entryX=0.5;entryY=1;entryDx=0;entryDy=0;" edge="1" parent="1" source="uJEWco5rzJKo2e32KWKp-82" target="uJEWco5rzJKo2e32KWKp-123">
          <mxGeometry relative="1" as="geometry" />
        </mxCell>
        <mxCell id="uJEWco5rzJKo2e32KWKp-82" value="appbar" style="rounded=1;whiteSpace=wrap;html=1;arcSize=50;" vertex="1" parent="1">
          <mxGeometry x="610" y="50" width="220" height="40" as="geometry" />
        </mxCell>
        <mxCell id="uJEWco5rzJKo2e32KWKp-83" value="" style="shape=table;startSize=0;container=1;collapsible=0;childLayout=tableLayout;fontSize=16;" vertex="1" parent="1">
          <mxGeometry x="630" y="130" width="180" height="120" as="geometry" />
        </mxCell>
        <mxCell id="uJEWco5rzJKo2e32KWKp-84" value="" style="shape=tableRow;horizontal=0;startSize=0;swimlaneHead=0;swimlaneBody=0;strokeColor=inherit;top=0;left=0;bottom=0;right=0;collapsible=0;dropTarget=0;fillColor=none;points=[[0,0.5],[1,0.5]];portConstraint=eastwest;fontSize=16;" vertex="1" parent="uJEWco5rzJKo2e32KWKp-83">
          <mxGeometry width="180" height="40" as="geometry" />
        </mxCell>
        <mxCell id="uJEWco5rzJKo2e32KWKp-85" value="" style="shape=partialRectangle;html=1;whiteSpace=wrap;connectable=0;strokeColor=inherit;overflow=hidden;fillColor=none;top=0;left=0;bottom=0;right=0;pointerEvents=1;fontSize=16;" vertex="1" parent="uJEWco5rzJKo2e32KWKp-84">
          <mxGeometry width="60" height="40" as="geometry">
            <mxRectangle width="60" height="40" as="alternateBounds" />
          </mxGeometry>
        </mxCell>
        <mxCell id="uJEWco5rzJKo2e32KWKp-86" value="" style="shape=partialRectangle;html=1;whiteSpace=wrap;connectable=0;strokeColor=inherit;overflow=hidden;fillColor=none;top=0;left=0;bottom=0;right=0;pointerEvents=1;fontSize=16;" vertex="1" parent="uJEWco5rzJKo2e32KWKp-84">
          <mxGeometry x="60" width="60" height="40" as="geometry">
            <mxRectangle width="60" height="40" as="alternateBounds" />
          </mxGeometry>
        </mxCell>
        <mxCell id="uJEWco5rzJKo2e32KWKp-87" value="" style="shape=partialRectangle;html=1;whiteSpace=wrap;connectable=0;strokeColor=inherit;overflow=hidden;fillColor=none;top=0;left=0;bottom=0;right=0;pointerEvents=1;fontSize=16;" vertex="1" parent="uJEWco5rzJKo2e32KWKp-84">
          <mxGeometry x="120" width="60" height="40" as="geometry">
            <mxRectangle width="60" height="40" as="alternateBounds" />
          </mxGeometry>
        </mxCell>
        <mxCell id="uJEWco5rzJKo2e32KWKp-88" value="" style="shape=tableRow;horizontal=0;startSize=0;swimlaneHead=0;swimlaneBody=0;strokeColor=inherit;top=0;left=0;bottom=0;right=0;collapsible=0;dropTarget=0;fillColor=none;points=[[0,0.5],[1,0.5]];portConstraint=eastwest;fontSize=16;" vertex="1" parent="uJEWco5rzJKo2e32KWKp-83">
          <mxGeometry y="40" width="180" height="40" as="geometry" />
        </mxCell>
        <mxCell id="uJEWco5rzJKo2e32KWKp-89" value="" style="shape=partialRectangle;html=1;whiteSpace=wrap;connectable=0;strokeColor=inherit;overflow=hidden;fillColor=none;top=0;left=0;bottom=0;right=0;pointerEvents=1;fontSize=16;" vertex="1" parent="uJEWco5rzJKo2e32KWKp-88">
          <mxGeometry width="60" height="40" as="geometry">
            <mxRectangle width="60" height="40" as="alternateBounds" />
          </mxGeometry>
        </mxCell>
        <mxCell id="uJEWco5rzJKo2e32KWKp-90" value="" style="shape=partialRectangle;html=1;whiteSpace=wrap;connectable=0;strokeColor=inherit;overflow=hidden;fillColor=none;top=0;left=0;bottom=0;right=0;pointerEvents=1;fontSize=16;" vertex="1" parent="uJEWco5rzJKo2e32KWKp-88">
          <mxGeometry x="60" width="60" height="40" as="geometry">
            <mxRectangle width="60" height="40" as="alternateBounds" />
          </mxGeometry>
        </mxCell>
        <mxCell id="uJEWco5rzJKo2e32KWKp-91" value="" style="shape=partialRectangle;html=1;whiteSpace=wrap;connectable=0;strokeColor=inherit;overflow=hidden;fillColor=none;top=0;left=0;bottom=0;right=0;pointerEvents=1;fontSize=16;" vertex="1" parent="uJEWco5rzJKo2e32KWKp-88">
          <mxGeometry x="120" width="60" height="40" as="geometry">
            <mxRectangle width="60" height="40" as="alternateBounds" />
          </mxGeometry>
        </mxCell>
        <mxCell id="uJEWco5rzJKo2e32KWKp-92" value="" style="shape=tableRow;horizontal=0;startSize=0;swimlaneHead=0;swimlaneBody=0;strokeColor=inherit;top=0;left=0;bottom=0;right=0;collapsible=0;dropTarget=0;fillColor=none;points=[[0,0.5],[1,0.5]];portConstraint=eastwest;fontSize=16;" vertex="1" parent="uJEWco5rzJKo2e32KWKp-83">
          <mxGeometry y="80" width="180" height="40" as="geometry" />
        </mxCell>
        <mxCell id="uJEWco5rzJKo2e32KWKp-93" value="" style="shape=partialRectangle;html=1;whiteSpace=wrap;connectable=0;strokeColor=inherit;overflow=hidden;fillColor=none;top=0;left=0;bottom=0;right=0;pointerEvents=1;fontSize=16;" vertex="1" parent="uJEWco5rzJKo2e32KWKp-92">
          <mxGeometry width="60" height="40" as="geometry">
            <mxRectangle width="60" height="40" as="alternateBounds" />
          </mxGeometry>
        </mxCell>
        <mxCell id="uJEWco5rzJKo2e32KWKp-94" value="" style="shape=partialRectangle;html=1;whiteSpace=wrap;connectable=0;strokeColor=inherit;overflow=hidden;fillColor=none;top=0;left=0;bottom=0;right=0;pointerEvents=1;fontSize=16;" vertex="1" parent="uJEWco5rzJKo2e32KWKp-92">
          <mxGeometry x="60" width="60" height="40" as="geometry">
            <mxRectangle width="60" height="40" as="alternateBounds" />
          </mxGeometry>
        </mxCell>
        <mxCell id="uJEWco5rzJKo2e32KWKp-95" value="" style="shape=partialRectangle;html=1;whiteSpace=wrap;connectable=0;strokeColor=inherit;overflow=hidden;fillColor=none;top=0;left=0;bottom=0;right=0;pointerEvents=1;fontSize=16;" vertex="1" parent="uJEWco5rzJKo2e32KWKp-92">
          <mxGeometry x="120" width="60" height="40" as="geometry">
            <mxRectangle width="60" height="40" as="alternateBounds" />
          </mxGeometry>
        </mxCell>
        <mxCell id="uJEWco5rzJKo2e32KWKp-96" value="" style="shape=table;startSize=0;container=1;collapsible=0;childLayout=tableLayout;fontSize=16;" vertex="1" parent="1">
          <mxGeometry x="630" y="250" width="180" height="120" as="geometry" />
        </mxCell>
        <mxCell id="uJEWco5rzJKo2e32KWKp-97" value="" style="shape=tableRow;horizontal=0;startSize=0;swimlaneHead=0;swimlaneBody=0;strokeColor=inherit;top=0;left=0;bottom=0;right=0;collapsible=0;dropTarget=0;fillColor=none;points=[[0,0.5],[1,0.5]];portConstraint=eastwest;fontSize=16;" vertex="1" parent="uJEWco5rzJKo2e32KWKp-96">
          <mxGeometry width="180" height="40" as="geometry" />
        </mxCell>
        <mxCell id="uJEWco5rzJKo2e32KWKp-98" value="" style="shape=partialRectangle;html=1;whiteSpace=wrap;connectable=0;strokeColor=inherit;overflow=hidden;fillColor=none;top=0;left=0;bottom=0;right=0;pointerEvents=1;fontSize=16;" vertex="1" parent="uJEWco5rzJKo2e32KWKp-97">
          <mxGeometry width="60" height="40" as="geometry">
            <mxRectangle width="60" height="40" as="alternateBounds" />
          </mxGeometry>
        </mxCell>
        <mxCell id="uJEWco5rzJKo2e32KWKp-99" value="" style="shape=partialRectangle;html=1;whiteSpace=wrap;connectable=0;strokeColor=inherit;overflow=hidden;fillColor=none;top=0;left=0;bottom=0;right=0;pointerEvents=1;fontSize=16;" vertex="1" parent="uJEWco5rzJKo2e32KWKp-97">
          <mxGeometry x="60" width="60" height="40" as="geometry">
            <mxRectangle width="60" height="40" as="alternateBounds" />
          </mxGeometry>
        </mxCell>
        <mxCell id="uJEWco5rzJKo2e32KWKp-100" value="" style="shape=partialRectangle;html=1;whiteSpace=wrap;connectable=0;strokeColor=inherit;overflow=hidden;fillColor=none;top=0;left=0;bottom=0;right=0;pointerEvents=1;fontSize=16;" vertex="1" parent="uJEWco5rzJKo2e32KWKp-97">
          <mxGeometry x="120" width="60" height="40" as="geometry">
            <mxRectangle width="60" height="40" as="alternateBounds" />
          </mxGeometry>
        </mxCell>
        <mxCell id="uJEWco5rzJKo2e32KWKp-101" value="" style="shape=tableRow;horizontal=0;startSize=0;swimlaneHead=0;swimlaneBody=0;strokeColor=inherit;top=0;left=0;bottom=0;right=0;collapsible=0;dropTarget=0;fillColor=none;points=[[0,0.5],[1,0.5]];portConstraint=eastwest;fontSize=16;" vertex="1" parent="uJEWco5rzJKo2e32KWKp-96">
          <mxGeometry y="40" width="180" height="40" as="geometry" />
        </mxCell>
        <mxCell id="uJEWco5rzJKo2e32KWKp-102" value="" style="shape=partialRectangle;html=1;whiteSpace=wrap;connectable=0;strokeColor=inherit;overflow=hidden;fillColor=none;top=0;left=0;bottom=0;right=0;pointerEvents=1;fontSize=16;" vertex="1" parent="uJEWco5rzJKo2e32KWKp-101">
          <mxGeometry width="60" height="40" as="geometry">
            <mxRectangle width="60" height="40" as="alternateBounds" />
          </mxGeometry>
        </mxCell>
        <mxCell id="uJEWco5rzJKo2e32KWKp-103" value="" style="shape=partialRectangle;html=1;whiteSpace=wrap;connectable=0;strokeColor=inherit;overflow=hidden;fillColor=none;top=0;left=0;bottom=0;right=0;pointerEvents=1;fontSize=16;" vertex="1" parent="uJEWco5rzJKo2e32KWKp-101">
          <mxGeometry x="60" width="60" height="40" as="geometry">
            <mxRectangle width="60" height="40" as="alternateBounds" />
          </mxGeometry>
        </mxCell>
        <mxCell id="uJEWco5rzJKo2e32KWKp-104" value="" style="shape=partialRectangle;html=1;whiteSpace=wrap;connectable=0;strokeColor=inherit;overflow=hidden;fillColor=none;top=0;left=0;bottom=0;right=0;pointerEvents=1;fontSize=16;" vertex="1" parent="uJEWco5rzJKo2e32KWKp-101">
          <mxGeometry x="120" width="60" height="40" as="geometry">
            <mxRectangle width="60" height="40" as="alternateBounds" />
          </mxGeometry>
        </mxCell>
        <mxCell id="uJEWco5rzJKo2e32KWKp-105" value="" style="shape=tableRow;horizontal=0;startSize=0;swimlaneHead=0;swimlaneBody=0;strokeColor=inherit;top=0;left=0;bottom=0;right=0;collapsible=0;dropTarget=0;fillColor=none;points=[[0,0.5],[1,0.5]];portConstraint=eastwest;fontSize=16;" vertex="1" parent="uJEWco5rzJKo2e32KWKp-96">
          <mxGeometry y="80" width="180" height="40" as="geometry" />
        </mxCell>
        <mxCell id="uJEWco5rzJKo2e32KWKp-106" value="" style="shape=partialRectangle;html=1;whiteSpace=wrap;connectable=0;strokeColor=inherit;overflow=hidden;fillColor=none;top=0;left=0;bottom=0;right=0;pointerEvents=1;fontSize=16;" vertex="1" parent="uJEWco5rzJKo2e32KWKp-105">
          <mxGeometry width="60" height="40" as="geometry">
            <mxRectangle width="60" height="40" as="alternateBounds" />
          </mxGeometry>
        </mxCell>
        <mxCell id="uJEWco5rzJKo2e32KWKp-107" value="" style="shape=partialRectangle;html=1;whiteSpace=wrap;connectable=0;strokeColor=inherit;overflow=hidden;fillColor=none;top=0;left=0;bottom=0;right=0;pointerEvents=1;fontSize=16;" vertex="1" parent="uJEWco5rzJKo2e32KWKp-105">
          <mxGeometry x="60" width="60" height="40" as="geometry">
            <mxRectangle width="60" height="40" as="alternateBounds" />
          </mxGeometry>
        </mxCell>
        <mxCell id="uJEWco5rzJKo2e32KWKp-108" value="" style="shape=partialRectangle;html=1;whiteSpace=wrap;connectable=0;strokeColor=inherit;overflow=hidden;fillColor=none;top=0;left=0;bottom=0;right=0;pointerEvents=1;fontSize=16;" vertex="1" parent="uJEWco5rzJKo2e32KWKp-105">
          <mxGeometry x="120" width="60" height="40" as="geometry">
            <mxRectangle width="60" height="40" as="alternateBounds" />
          </mxGeometry>
        </mxCell>
        <mxCell id="uJEWco5rzJKo2e32KWKp-109" value="" style="shape=table;startSize=0;container=1;collapsible=0;childLayout=tableLayout;fontSize=16;" vertex="1" parent="1">
          <mxGeometry x="630" y="370" width="180" height="120" as="geometry" />
        </mxCell>
        <mxCell id="uJEWco5rzJKo2e32KWKp-110" value="" style="shape=tableRow;horizontal=0;startSize=0;swimlaneHead=0;swimlaneBody=0;strokeColor=inherit;top=0;left=0;bottom=0;right=0;collapsible=0;dropTarget=0;fillColor=none;points=[[0,0.5],[1,0.5]];portConstraint=eastwest;fontSize=16;" vertex="1" parent="uJEWco5rzJKo2e32KWKp-109">
          <mxGeometry width="180" height="40" as="geometry" />
        </mxCell>
        <mxCell id="uJEWco5rzJKo2e32KWKp-111" value="" style="shape=partialRectangle;html=1;whiteSpace=wrap;connectable=0;strokeColor=inherit;overflow=hidden;fillColor=none;top=0;left=0;bottom=0;right=0;pointerEvents=1;fontSize=16;" vertex="1" parent="uJEWco5rzJKo2e32KWKp-110">
          <mxGeometry width="60" height="40" as="geometry">
            <mxRectangle width="60" height="40" as="alternateBounds" />
          </mxGeometry>
        </mxCell>
        <mxCell id="uJEWco5rzJKo2e32KWKp-112" value="" style="shape=partialRectangle;html=1;whiteSpace=wrap;connectable=0;strokeColor=inherit;overflow=hidden;fillColor=none;top=0;left=0;bottom=0;right=0;pointerEvents=1;fontSize=16;" vertex="1" parent="uJEWco5rzJKo2e32KWKp-110">
          <mxGeometry x="60" width="60" height="40" as="geometry">
            <mxRectangle width="60" height="40" as="alternateBounds" />
          </mxGeometry>
        </mxCell>
        <mxCell id="uJEWco5rzJKo2e32KWKp-113" value="" style="shape=partialRectangle;html=1;whiteSpace=wrap;connectable=0;strokeColor=inherit;overflow=hidden;fillColor=none;top=0;left=0;bottom=0;right=0;pointerEvents=1;fontSize=16;" vertex="1" parent="uJEWco5rzJKo2e32KWKp-110">
          <mxGeometry x="120" width="60" height="40" as="geometry">
            <mxRectangle width="60" height="40" as="alternateBounds" />
          </mxGeometry>
        </mxCell>
        <mxCell id="uJEWco5rzJKo2e32KWKp-114" value="" style="shape=tableRow;horizontal=0;startSize=0;swimlaneHead=0;swimlaneBody=0;strokeColor=inherit;top=0;left=0;bottom=0;right=0;collapsible=0;dropTarget=0;fillColor=none;points=[[0,0.5],[1,0.5]];portConstraint=eastwest;fontSize=16;" vertex="1" parent="uJEWco5rzJKo2e32KWKp-109">
          <mxGeometry y="40" width="180" height="40" as="geometry" />
        </mxCell>
        <mxCell id="uJEWco5rzJKo2e32KWKp-115" value="" style="shape=partialRectangle;html=1;whiteSpace=wrap;connectable=0;strokeColor=inherit;overflow=hidden;fillColor=none;top=0;left=0;bottom=0;right=0;pointerEvents=1;fontSize=16;" vertex="1" parent="uJEWco5rzJKo2e32KWKp-114">
          <mxGeometry width="60" height="40" as="geometry">
            <mxRectangle width="60" height="40" as="alternateBounds" />
          </mxGeometry>
        </mxCell>
        <mxCell id="uJEWco5rzJKo2e32KWKp-116" value="" style="shape=partialRectangle;html=1;whiteSpace=wrap;connectable=0;strokeColor=inherit;overflow=hidden;fillColor=none;top=0;left=0;bottom=0;right=0;pointerEvents=1;fontSize=16;" vertex="1" parent="uJEWco5rzJKo2e32KWKp-114">
          <mxGeometry x="60" width="60" height="40" as="geometry">
            <mxRectangle width="60" height="40" as="alternateBounds" />
          </mxGeometry>
        </mxCell>
        <mxCell id="uJEWco5rzJKo2e32KWKp-117" value="" style="shape=partialRectangle;html=1;whiteSpace=wrap;connectable=0;strokeColor=inherit;overflow=hidden;fillColor=none;top=0;left=0;bottom=0;right=0;pointerEvents=1;fontSize=16;" vertex="1" parent="uJEWco5rzJKo2e32KWKp-114">
          <mxGeometry x="120" width="60" height="40" as="geometry">
            <mxRectangle width="60" height="40" as="alternateBounds" />
          </mxGeometry>
        </mxCell>
        <mxCell id="uJEWco5rzJKo2e32KWKp-118" value="" style="shape=tableRow;horizontal=0;startSize=0;swimlaneHead=0;swimlaneBody=0;strokeColor=inherit;top=0;left=0;bottom=0;right=0;collapsible=0;dropTarget=0;fillColor=none;points=[[0,0.5],[1,0.5]];portConstraint=eastwest;fontSize=16;" vertex="1" parent="uJEWco5rzJKo2e32KWKp-109">
          <mxGeometry y="80" width="180" height="40" as="geometry" />
        </mxCell>
        <mxCell id="uJEWco5rzJKo2e32KWKp-119" value="" style="shape=partialRectangle;html=1;whiteSpace=wrap;connectable=0;strokeColor=inherit;overflow=hidden;fillColor=none;top=0;left=0;bottom=0;right=0;pointerEvents=1;fontSize=16;" vertex="1" parent="uJEWco5rzJKo2e32KWKp-118">
          <mxGeometry width="60" height="40" as="geometry">
            <mxRectangle width="60" height="40" as="alternateBounds" />
          </mxGeometry>
        </mxCell>
        <mxCell id="uJEWco5rzJKo2e32KWKp-120" value="" style="shape=partialRectangle;html=1;whiteSpace=wrap;connectable=0;strokeColor=inherit;overflow=hidden;fillColor=none;top=0;left=0;bottom=0;right=0;pointerEvents=1;fontSize=16;" vertex="1" parent="uJEWco5rzJKo2e32KWKp-118">
          <mxGeometry x="60" width="60" height="40" as="geometry">
            <mxRectangle width="60" height="40" as="alternateBounds" />
          </mxGeometry>
        </mxCell>
        <mxCell id="uJEWco5rzJKo2e32KWKp-121" value="" style="shape=partialRectangle;html=1;whiteSpace=wrap;connectable=0;strokeColor=inherit;overflow=hidden;fillColor=none;top=0;left=0;bottom=0;right=0;pointerEvents=1;fontSize=16;" vertex="1" parent="uJEWco5rzJKo2e32KWKp-118">
          <mxGeometry x="120" width="60" height="40" as="geometry">
            <mxRectangle width="60" height="40" as="alternateBounds" />
          </mxGeometry>
        </mxCell>
        <mxCell id="uJEWco5rzJKo2e32KWKp-122" value="Text" style="text;html=1;align=center;verticalAlign=middle;whiteSpace=wrap;rounded=0;" vertex="1" parent="1">
          <mxGeometry x="690" y="100" width="60" height="30" as="geometry" />
        </mxCell>
        <mxCell id="uJEWco5rzJKo2e32KWKp-123" value="" style="rounded=1;whiteSpace=wrap;html=1;direction=south;arcSize=9;" vertex="1" parent="1">
          <mxGeometry x="880" y="40" width="240" height="480" as="geometry" />
        </mxCell>
        <mxCell id="uJEWco5rzJKo2e32KWKp-125" value="appbar" style="rounded=1;whiteSpace=wrap;html=1;arcSize=50;" vertex="1" parent="1">
          <mxGeometry x="890" y="50" width="220" height="40" as="geometry" />
        </mxCell>
        <mxCell id="uJEWco5rzJKo2e32KWKp-126" value="accept button" style="rounded=1;whiteSpace=wrap;html=1;arcSize=50;" vertex="1" parent="1">
          <mxGeometry x="890" y="470" width="220" height="40" as="geometry" />
        </mxCell>
        <mxCell id="uJEWco5rzJKo2e32KWKp-127" value="button for&lt;br&gt;photo" style="whiteSpace=wrap;html=1;aspect=fixed;" vertex="1" parent="1">
          <mxGeometry x="910" y="370" width="80" height="80" as="geometry" />
        </mxCell>
        <mxCell id="uJEWco5rzJKo2e32KWKp-128" value="file preview" style="rounded=1;whiteSpace=wrap;html=1;" vertex="1" parent="1">
          <mxGeometry x="900" y="110" width="200" height="230" as="geometry" />
        </mxCell>
        <mxCell id="uJEWco5rzJKo2e32KWKp-129" value="delete&lt;br&gt;photo" style="whiteSpace=wrap;html=1;aspect=fixed;" vertex="1" parent="1">
          <mxGeometry x="1010" y="370" width="80" height="80" as="geometry" />
        </mxCell>
        <mxCell id="uJEWco5rzJKo2e32KWKp-130" value="" style="rounded=1;whiteSpace=wrap;html=1;direction=south;arcSize=9;" vertex="1" parent="1">
          <mxGeometry x="1160" y="40" width="240" height="480" as="geometry" />
        </mxCell>
        <mxCell id="uJEWco5rzJKo2e32KWKp-131" value="user&lt;br&gt;photo" style="rounded=1;whiteSpace=wrap;html=1;" vertex="1" parent="1">
          <mxGeometry x="1170" y="100" width="110" height="120" as="geometry" />
        </mxCell>
        <mxCell id="uJEWco5rzJKo2e32KWKp-132" value="logo" style="ellipse;whiteSpace=wrap;html=1;" vertex="1" parent="1">
          <mxGeometry x="1235" y="50" width="90" height="30" as="geometry" />
        </mxCell>
        <mxCell id="uJEWco5rzJKo2e32KWKp-133" value="" style="line;strokeWidth=2;html=1;" vertex="1" parent="1">
          <mxGeometry x="1160" y="80" width="240" height="10" as="geometry" />
        </mxCell>
        <mxCell id="uJEWco5rzJKo2e32KWKp-134" value="" style="endArrow=classic;html=1;rounded=0;" edge="1" parent="1">
          <mxGeometry width="50" height="50" relative="1" as="geometry">
            <mxPoint x="1190" y="64.85000000000002" as="sourcePoint" />
            <mxPoint x="1170" y="64.85000000000002" as="targetPoint" />
          </mxGeometry>
        </mxCell>
        <mxCell id="uJEWco5rzJKo2e32KWKp-135" value="info" style="text;html=1;align=center;verticalAlign=middle;whiteSpace=wrap;rounded=0;" vertex="1" parent="1">
          <mxGeometry x="1300" y="105" width="60" height="30" as="geometry" />
        </mxCell>
        <mxCell id="uJEWco5rzJKo2e32KWKp-136" value="info" style="text;html=1;align=center;verticalAlign=middle;whiteSpace=wrap;rounded=0;" vertex="1" parent="1">
          <mxGeometry x="1300" y="145" width="60" height="30" as="geometry" />
        </mxCell>
        <mxCell id="uJEWco5rzJKo2e32KWKp-137" value="info" style="text;html=1;align=center;verticalAlign=middle;whiteSpace=wrap;rounded=0;" vertex="1" parent="1">
          <mxGeometry x="1300" y="190" width="60" height="30" as="geometry" />
        </mxCell>
        <mxCell id="uJEWco5rzJKo2e32KWKp-139" value="log out" style="rounded=1;whiteSpace=wrap;html=1;" vertex="1" parent="1">
          <mxGeometry x="1240" y="470" width="80" height="40" as="geometry" />
        </mxCell>
        <mxCell id="uJEWco5rzJKo2e32KWKp-140" value="check permitions" style="rounded=1;whiteSpace=wrap;html=1;" vertex="1" parent="1">
          <mxGeometry x="1220" y="270" width="120" height="50" as="geometry" />
        </mxCell>
      </root>
    </mxGraphModel>
  </diagram>
</mxfile>
